<svg width="193" height="217" viewBox="0 0 193 217" fill="none" xmlns="http://www.w3.org/2000/svg">
<path d="M144 75.5V78V84.5L145 88L146.5 90.5L149.5 92.5H192V6.5L190.5 4L188.5 2L185.5 0.5H104V69.5H137.5L139 70.5L141 72L142.5 73.5L144 75.5Z" fill="#878E97" stroke="#626F79"/>
<path d="M89.5 44.5V0.5H5.5L3.5 1.5L2.5 2.5L1.5 4.5L0.5 7.5V105.5L1.5 108L3 110L5.5 112.5L7.5 113.5H43L51.5 119.5L53 120.5L54.5 121.5L58 122.5H132.5L134.5 123.5L140 127L141.5 129.5L142.5 132V167.5L141.5 170.5L139.5 173L137.5 175L134.5 175.5H104.5V216.5H185.5L188 216L190 215L191.5 213.5L192.5 211.5V113.5L191 111L189.5 109L187.5 107.5L185.5 106.5H151L149 106L146 105L143 103L140 101L137 99L134.5 98H60.5L57 97L54.5 95.5L52 93L50.5 89.5V52.5L51.5 50.5L52.5 49L53.5 48L54.5 47L55.5 46L57 45L58.5 44.5H89.5Z" fill="#12579A" stroke="#002B7E"/>
<path d="M50.0568 141.5V139V132.5L49.0455 130.5L47.0227 128L43.483 126.5H0.5V210.5L1 212L1.5 213L2.5 214L3.5 215L5 216L6.5 216.5H7.58693H89.0017L89.5 149H55.6193L53.5966 147.5L51.5739 145.5L50.5625 143.5L50.0568 141.5Z" fill="#878E97" stroke="#626F79"/>
</svg>
